<svg width="106" height="18" viewBox="0 0 106 18" fill="none" xmlns="http://www.w3.org/2000/svg">
<path d="M18.8503 2.45519C18.8444 2.44406 18.8347 2.43534 18.8228 2.43058C17.4528 1.81565 16.007 1.37716 14.5216 1.12608C14.5081 1.12362 14.4942 1.12539 14.4818 1.13114C14.4694 1.13688 14.4591 1.1463 14.4525 1.15807C14.2556 1.50762 14.0769 1.86667 13.917 2.23385C12.3159 1.99608 10.6872 1.99608 9.0861 2.23385C8.92517 1.86574 8.74358 1.5066 8.54219 1.15807C8.53528 1.14656 8.52499 1.13735 8.51266 1.13165C8.50032 1.12594 8.48652 1.124 8.47304 1.12608C6.98752 1.37663 5.54163 1.81516 4.17175 2.43062C4.16003 2.43548 4.15013 2.44379 4.14343 2.45439C1.40395 6.45651 0.653505 10.3602 1.02165 14.2156C1.02269 14.2251 1.02565 14.2342 1.03038 14.2425C1.0351 14.2508 1.04148 14.2581 1.04914 14.2639C2.64432 15.4194 4.42854 16.3013 6.32567 16.8722C6.33903 16.8761 6.3533 16.8759 6.36655 16.8716C6.3798 16.8674 6.39141 16.8593 6.39981 16.8484C6.80727 16.306 7.16831 15.7317 7.47926 15.1313C7.48354 15.123 7.48598 15.114 7.48642 15.1048C7.48687 15.0956 7.48531 15.0863 7.48185 15.0777C7.47839 15.0691 7.47311 15.0614 7.46635 15.0549C7.45959 15.0485 7.45151 15.0435 7.44264 15.0403C6.87331 14.8272 6.32212 14.5703 5.79426 14.272C5.78467 14.2665 5.77662 14.2588 5.77081 14.2495C5.76501 14.2402 5.76162 14.2297 5.76097 14.2188C5.76031 14.208 5.7624 14.1971 5.76704 14.1872C5.77169 14.1773 5.77876 14.1687 5.78761 14.1621C5.89837 14.081 6.0092 13.9965 6.11497 13.9112C6.12436 13.9036 6.13573 13.8988 6.1478 13.8972C6.15986 13.8956 6.17214 13.8974 6.18325 13.9022C9.64148 15.4462 13.3855 15.4462 16.8028 13.9022C16.8139 13.897 16.8263 13.8951 16.8386 13.8965C16.8508 13.898 16.8624 13.9028 16.8719 13.9104C16.9777 13.9957 17.0885 14.081 17.2001 14.1621C17.209 14.1686 17.2161 14.1772 17.2209 14.1871C17.2256 14.1969 17.2278 14.2077 17.2272 14.2186C17.2266 14.2295 17.2233 14.24 17.2176 14.2493C17.2118 14.2587 17.2038 14.2665 17.1943 14.272C16.6676 14.5728 16.1159 14.8295 15.5451 15.0395C15.5363 15.0428 15.5282 15.0479 15.5215 15.0544C15.5148 15.061 15.5096 15.0689 15.5062 15.0775C15.5028 15.0862 15.5013 15.0955 15.5018 15.1047C15.5023 15.114 15.5048 15.123 15.5092 15.1313C15.8253 15.7284 16.1858 16.302 16.5878 16.8474C16.596 16.8586 16.6075 16.867 16.6208 16.8714C16.6341 16.8759 16.6485 16.8761 16.6619 16.872C18.5625 16.3032 20.3498 15.4211 21.947 14.2639C21.9548 14.2584 21.9612 14.2513 21.966 14.2431C21.9707 14.2349 21.9736 14.2258 21.9745 14.2164C22.4152 9.75919 21.2366 5.88747 18.8503 2.45519ZM7.99572 11.8681C6.95454 11.8681 6.09664 10.9334 6.09664 9.78546C6.09664 8.63753 6.9379 7.70276 7.99572 7.70276C9.06181 7.70276 9.91141 8.64565 9.89477 9.78538C9.89477 10.9334 9.05347 11.8681 7.99572 11.8681ZM15.0172 11.8681C13.9761 11.8681 13.1181 10.9334 13.1181 9.78546C13.1181 8.63753 13.9594 7.70276 15.0172 7.70276C16.0834 7.70276 16.9329 8.64565 16.9163 9.78538C16.9163 10.9334 16.0834 11.8681 15.0172 11.8681Z" fill="white"/>
<path d="M62.1497 5.33381C62.1612 5.4937 62.1612 5.65363 62.1612 5.81352C62.1612 10.6904 58.4492 16.3097 51.665 16.3097C49.5749 16.3097 47.6333 15.7043 46 14.6536C46.297 14.6879 46.5825 14.6993 46.8909 14.6993C48.6154 14.6993 50.203 14.1168 51.4708 13.1232C49.849 13.0889 48.4898 12.0267 48.0216 10.5648C48.25 10.599 48.4784 10.6219 48.7183 10.6219C49.0495 10.6219 49.3807 10.5762 49.6891 10.4963C47.9987 10.1536 46.7309 8.66884 46.7309 6.8757V6.83003C47.222 7.10414 47.7931 7.27546 48.3984 7.29827C47.4048 6.63582 46.7538 5.50513 46.7538 4.22593C46.7538 3.54067 46.9365 2.9125 47.2563 2.36427C49.0723 4.60284 51.802 6.06475 54.8629 6.22467C54.8058 5.95056 54.7715 5.66505 54.7715 5.37952C54.7715 3.3465 56.4162 1.69043 58.4606 1.69043C59.5228 1.69043 60.4822 2.13586 61.156 2.8554C61.9898 2.69551 62.7893 2.38712 63.4974 1.96454C63.2233 2.82116 62.6408 3.5407 61.8756 3.99752C62.618 3.91761 63.3375 3.71198 63.9999 3.42648C63.4975 4.15741 62.8693 4.8084 62.1497 5.33381V5.33381Z" fill="white"/>
<path d="M90.5137 5.00273C90.5348 4.79531 90.454 4.58789 90.2993 4.44727L88.7137 2.53477V2.25H93.6426L97.4536 10.6066L100.804 2.25H105.504V2.53477L104.147 3.83555C104.031 3.92344 103.972 4.07109 103.996 4.21523V13.7777C103.972 13.9219 104.031 14.0695 104.147 14.1574L105.473 15.4582V15.743H98.8036V15.4582L100.178 14.1258C100.312 13.9922 100.312 13.95 100.312 13.7461V6.01875L96.4903 15.7184H95.9735L91.5297 6.01875V12.5191C91.4911 12.7934 91.5825 13.0676 91.7758 13.2645L93.5618 15.4301V15.7148H88.4993V15.4336L90.2852 13.2645C90.475 13.0676 90.5629 12.7898 90.5137 12.5191V5.00273Z" fill="white"/>
</svg>
