<svg width="36" height="44" viewBox="0 0 36 44" fill="none" xmlns="http://www.w3.org/2000/svg">
<path d="M11.0049 0C9.83796 0 8.71883 0.463561 7.89368 1.2887C7.06854 2.11385 6.60498 3.23298 6.60498 4.39991H26.4046C27.5715 4.39991 28.6906 4.86347 29.5158 5.68862C30.3409 6.51376 30.8045 7.63289 30.8045 8.79982V35.1993C31.9714 35.1993 33.0906 34.7357 33.9157 33.9106C34.7408 33.0854 35.2044 31.9663 35.2044 30.7994V4.39991C35.2044 3.23298 34.7408 2.11385 33.9157 1.2887C33.0906 0.463561 31.9714 0 30.8045 0L11.0049 0Z" fill="black"/>
<path d="M19.3654 34.32C17.8208 35.2047 16.0761 35.6598 14.3055 35.6399C12.0286 35.6372 9.8192 34.85 8.03433 33.4057C6.24945 31.9613 4.99345 29.9441 4.46934 27.6803C3.94523 25.4164 4.18364 23.038 5.14604 20.9297C6.10844 18.8214 7.73858 17.1062 9.77296 16.0615C11.8073 15.0169 14.1271 14.7037 16.3572 15.1726C18.5874 15.6415 20.5976 16.8652 22.0629 18.6457C23.5282 20.4263 24.3631 22.6597 24.4325 24.985C24.5019 27.3103 23.8018 29.5915 22.4453 31.46L28.6052 38.0599V10.7804C28.6052 9.67185 28.1648 8.60868 27.381 7.82479C26.5971 7.0409 25.5339 6.60052 24.4253 6.60052H4.40571C3.83856 6.57063 3.27128 6.65663 2.73848 6.85326C2.20568 7.0499 1.71854 7.35305 1.30679 7.74421C0.895043 8.13537 0.567327 8.60633 0.343645 9.12836C0.119962 9.65038 0.00500666 10.2125 0.00579384 10.7804V39.5999C-0.0240977 40.167 0.0618989 40.7343 0.258534 41.2671C0.45517 41.7999 0.75832 42.287 1.14948 42.6988C1.54064 43.1105 2.0116 43.4382 2.53363 43.6619C3.05565 43.8856 3.61778 44.0006 4.18571 43.9998H24.2053C24.782 44.0041 25.3533 43.8891 25.8833 43.6619C26.4134 43.4348 26.8907 43.1004 27.2852 42.6798L19.3654 34.32Z" fill="black"/>
<path d="M14.3049 31.8985C17.95 31.8985 20.9048 28.9436 20.9048 25.2986C20.9048 21.6536 17.95 18.6987 14.3049 18.6987C10.6599 18.6987 7.70508 21.6536 7.70508 25.2986C7.70508 28.9436 10.6599 31.8985 14.3049 31.8985Z" fill="black"/>
</svg>
