<svg width="15" height="15" viewBox="0 0 15 15" fill="none" xmlns="http://www.w3.org/2000/svg">
<g clip-path="url(#clip0_2_2297)">
<path d="M7.50011 14.0636C11.1245 14.0636 14.0626 11.1255 14.0626 7.50114C14.0626 3.87679 11.1245 0.938682 7.50011 0.938682C3.87577 0.938682 0.93766 3.87679 0.93766 7.50114C0.93766 11.1255 3.87577 14.0636 7.50011 14.0636Z" stroke="#E4E6E9" stroke-width="1.7907"/>
<path d="M6.45877 9.24579H7.56738V9.15923C7.57405 8.45345 7.80375 8.13052 8.34641 7.7976C8.95898 7.43139 9.34183 6.93202 9.34183 6.16964C9.34183 5.04438 8.46626 4.33859 7.19452 4.33859C6.02931 4.33859 5.08383 4.98445 5.05053 6.24953H6.23572C6.26568 5.62365 6.71844 5.32403 7.18786 5.32403C7.69722 5.32403 8.10671 5.6636 8.10671 6.18628C8.10671 6.65236 7.79709 6.97197 7.39426 7.22499C6.805 7.59119 6.46543 7.96073 6.45877 9.15923V9.24579ZM7.04137 11.3232C7.43422 11.3232 7.77046 10.9969 7.77379 10.5908C7.77046 10.1912 7.43422 9.86499 7.04137 9.86499C6.63521 9.86499 6.30563 10.1912 6.30896 10.5908C6.30563 10.9969 6.63521 11.3232 7.04137 11.3232Z" fill="#8F97A3"/>
</g>
<defs>
<clipPath id="clip0_2_2297">
<rect width="14.3256" height="14.3256" fill="white" transform="scale(1.04707)"/>
</clipPath>
</defs>
</svg>
