<svg width="21" height="24" viewBox="0 0 21 24" fill="none" xmlns="http://www.w3.org/2000/svg">
<path d="M20.5373 18.8731L20.8577 19.1332L20.5374 18.8731C20.5591 18.8464 20.5642 18.8248 20.5649 18.8082C20.5657 18.7886 20.5604 18.7649 20.5465 18.7418C20.5326 18.7186 20.5138 18.7023 20.4955 18.6935C20.4798 18.6859 20.4585 18.6806 20.426 18.6868C14.4567 19.8236 8.97464 15.2464 8.97464 9.22029C8.97464 5.74903 10.8332 2.55682 13.8527 0.838459L14.0679 1.21665L13.8527 0.838456C13.8817 0.821972 13.8944 0.804001 13.9013 0.788244C13.9095 0.769829 13.9132 0.745376 13.9087 0.718648C13.9042 0.691941 13.8928 0.670301 13.8793 0.655809C13.8679 0.643492 13.85 0.630546 13.8166 0.624355L20.5373 18.8731ZM20.5373 18.8731C18.4252 21.4755 15.2385 23.0626 11.7489 23.0626M20.5373 18.8731L11.7489 23.0626M11.7489 23.0626C5.49589 23.0626 0.435143 17.994 0.435143 11.7489C0.435143 5.49589 5.50375 0.435143 11.7489 0.435143V23.0626Z" fill="#811FF1" stroke="#811FF1" stroke-width="0.859359"/>
</svg>
