<svg width="46" height="35" viewBox="0 0 46 35" fill="none" xmlns="http://www.w3.org/2000/svg">
<path d="M38.9477 2.95599C38.935 2.93124 38.9138 2.91186 38.888 2.9013C35.9097 1.53478 32.7666 0.560353 29.5376 0.00239013C29.5082 -0.00306385 29.4779 0.000870718 29.451 0.0136343C29.424 0.0263978 29.4017 0.0473404 29.3873 0.0734839C28.9594 0.850272 28.5708 1.64816 28.2233 2.46411C24.7425 1.93574 21.202 1.93574 17.7212 2.46411C17.3714 1.64609 16.9766 0.848002 16.5388 0.0734839C16.5238 0.0479086 16.5014 0.0274483 16.4746 0.0147676C16.4478 0.00208701 16.4178 -0.00222614 16.3885 0.00239013C13.1591 0.559182 10.0159 1.53369 7.03788 2.90138C7.01239 2.91218 6.99088 2.93064 6.97632 2.95419C1.02093 11.8478 -0.61048 20.5227 0.189833 29.0902C0.192084 29.1112 0.198535 29.1315 0.208803 29.15C0.21907 29.1684 0.232944 29.1847 0.249599 29.1976C3.71737 31.7653 7.59611 33.7251 11.7203 34.9937C11.7493 35.0024 11.7804 35.002 11.8092 34.9925C11.838 34.9831 11.8632 34.9651 11.8815 34.9408C12.7673 33.7356 13.5521 32.4593 14.2281 31.1251C14.2374 31.1067 14.2427 31.0867 14.2437 31.0662C14.2446 31.0457 14.2413 31.0252 14.2337 31.0061C14.2262 30.987 14.2147 30.9697 14.2 30.9553C14.1854 30.941 14.1678 30.9299 14.1485 30.9229C12.9108 30.4493 11.7126 29.8784 10.5651 29.2156C10.5442 29.2034 10.5267 29.1862 10.5141 29.1655C10.5015 29.1449 10.4941 29.1215 10.4927 29.0973C10.4913 29.0732 10.4958 29.0491 10.5059 29.0271C10.516 29.0052 10.5314 28.986 10.5506 28.9714C10.7914 28.791 11.0323 28.6033 11.2623 28.4138C11.2827 28.397 11.3074 28.3862 11.3336 28.3827C11.3599 28.3791 11.3865 28.383 11.4107 28.3938C18.9286 31.8248 27.0677 31.8248 34.4966 28.3938C34.5208 28.3823 34.5478 28.3779 34.5744 28.3811C34.601 28.3843 34.6262 28.3951 34.647 28.412C34.877 28.6015 35.1178 28.791 35.3604 28.9714C35.3797 28.9859 35.3952 29.0049 35.4055 29.0268C35.4158 29.0487 35.4205 29.0727 35.4192 29.0969C35.418 29.121 35.4108 29.1445 35.3983 29.1652C35.3859 29.1859 35.3685 29.2032 35.3477 29.2156C34.2028 29.884 33.0035 30.4545 31.7626 30.9211C31.7433 30.9284 31.7258 30.9397 31.7112 30.9543C31.6966 30.9689 31.6853 30.9863 31.6779 31.0056C31.6705 31.0248 31.6673 31.0454 31.6684 31.066C31.6695 31.0866 31.675 31.1067 31.6845 31.1251C32.3717 32.4519 33.1555 33.7266 34.0293 34.9387C34.047 34.9636 34.0721 34.9823 34.1011 34.9921C34.13 35.0019 34.1613 35.0024 34.1905 34.9934C38.3221 33.7292 42.2076 31.7691 45.6797 29.1976C45.6966 29.1853 45.7107 29.1695 45.721 29.1513C45.7313 29.1331 45.7376 29.1129 45.7395 29.092C46.6976 19.1871 44.1354 10.5833 38.9477 2.95599ZM15.3509 23.8735C13.0874 23.8735 11.2224 21.7964 11.2224 19.2454C11.2224 16.6945 13.0512 14.6172 15.3509 14.6172C17.6684 14.6172 19.5154 16.7126 19.4792 19.2453C19.4792 21.7964 17.6503 23.8735 15.3509 23.8735ZM30.6149 23.8735C28.3516 23.8735 26.4866 21.7964 26.4866 19.2454C26.4866 16.6945 28.3154 14.6172 30.6149 14.6172C32.9327 14.6172 34.7795 16.7126 34.7434 19.2453C34.7434 21.7964 32.9327 23.8735 30.6149 23.8735Z" fill="black"/>
</svg>
