<svg width="44" height="44" viewBox="0 0 44 44" fill="none" xmlns="http://www.w3.org/2000/svg">
<path d="M22 41C11.5066 41 3 32.4934 3 22C3 11.5066 11.5066 3 22 3C32.4934 3 41 11.5066 41 22C41 32.4934 32.4934 41 22 41Z" fill="#F4F5F6" stroke="#F4F5F6" stroke-width="6"/>
<path d="M28.4007 22.9687C28.4551 22.6486 28.4836 22.3246 28.4859 22V22.0001C28.4836 21.6754 28.4551 21.3514 28.4007 21.0314L29.7974 19.6787C30.0165 19.4662 30.0634 19.1315 29.9111 18.8667L28.9135 17.1333C28.7592 16.8696 28.4469 16.7434 28.1533 16.826L26.2911 17.3593C25.7869 16.9477 25.2193 16.621 24.6104 16.392L24.1429 14.5053C24.069 14.2084 23.803 14.0001 23.4978 14H21.5025C21.1972 14.0001 20.9312 14.2084 20.8574 14.5053L20.3872 16.392C19.7793 16.6212 19.2125 16.9479 18.7092 17.3593L16.8469 16.826C16.5533 16.7436 16.2412 16.8698 16.0867 17.1333L15.0891 18.8667C14.9365 19.1316 14.9834 19.4667 15.2029 19.6794L16.5995 21.032C16.5452 21.3518 16.5167 21.6756 16.5144 22V21.9999C16.5167 22.3246 16.5451 22.6486 16.5995 22.9686L15.2028 24.3213C14.9837 24.5338 14.9368 24.8685 15.0891 25.1333L16.0867 26.8667C16.2057 27.0731 16.4255 27.2002 16.6634 27.2C16.7252 27.1997 16.7867 27.1912 16.8463 27.1747L18.7085 26.6413C19.2127 27.053 19.7803 27.3797 20.3892 27.6087L20.8594 29.4954C20.9333 29.7913 21.1982 29.9991 21.5025 30H23.4978C23.803 29.9999 24.069 29.7916 24.1429 29.4947L24.6131 27.608C25.221 27.3788 25.7877 27.0521 26.2911 26.6407L28.1533 27.174C28.2129 27.1906 28.2744 27.199 28.3362 27.1994C28.574 27.1996 28.7939 27.0725 28.9128 26.866L29.9105 25.1327C30.0631 24.8677 30.0162 24.5326 29.7967 24.32L28.4007 22.9687ZM22.5001 24.6667C21.0308 24.6667 19.8398 23.4727 19.8398 22C19.8398 20.5273 21.0308 19.3333 22.5001 19.3333C23.9694 19.3333 25.1605 20.5273 25.1605 22C25.1605 23.4727 23.9694 24.6667 22.5001 24.6667Z" fill="black"/>
</svg>
