<svg width="49" height="44" viewBox="0 0 49 44" fill="none" xmlns="http://www.w3.org/2000/svg">
<path d="M31.1764 17.1111C33.5378 17.1111 35.4542 19.0276 35.4542 21.3889V32.9976C35.4542 35.9156 34.295 38.7141 32.2317 40.7775C30.1683 42.8408 27.3698 44 24.4518 44C21.5337 44 18.7352 42.8408 16.6719 40.7775C14.6085 38.7141 13.4493 35.9156 13.4493 32.9976V21.3889C13.4493 19.0276 15.3633 17.1111 17.7271 17.1111H31.1764V17.1111ZM12.5424 17.1111C11.662 18.1707 11.1324 19.4775 11.0269 20.8511L11.0024 21.3889V32.9976C11.0024 35.068 11.4718 37.0284 12.3078 38.7787C10.8589 39.1663 9.3403 39.2155 7.86939 38.9224C6.39847 38.6294 5.01465 38.002 3.82494 37.0887C2.63522 36.1755 1.67148 35.0008 1.00824 33.6556C0.345003 32.3104 3.00661e-05 30.8307 0 29.3309V21.3889C4.01001e-05 20.3153 0.403751 19.281 1.131 18.4913C1.85824 17.7015 2.85584 17.2141 3.92578 17.1258L4.27778 17.1111H12.5424V17.1111ZM36.3611 17.1111H44.6111C46.9724 17.1111 48.8889 19.0276 48.8889 21.3889V29.3333C48.8892 30.8322 48.545 32.311 47.8827 33.6557C47.2205 35.0003 46.258 36.1746 45.0696 37.088C43.8812 38.0014 42.4987 38.6293 41.029 38.9233C39.5593 39.2173 38.0416 39.1695 36.5933 38.7836C37.3267 37.2484 37.7764 35.5569 37.8767 33.7676L37.8987 32.9976V21.3889C37.8987 19.7633 37.3218 18.2722 36.3587 17.1111H36.3611ZM24.4444 0C26.3894 0 28.2546 0.772617 29.6299 2.14788C31.0052 3.52315 31.7778 5.38841 31.7778 7.33333C31.7778 9.27825 31.0052 11.1435 29.6299 12.5188C28.2546 13.8941 26.3894 14.6667 24.4444 14.6667C22.4995 14.6667 20.6343 13.8941 19.259 12.5188C17.8837 11.1435 17.1111 9.27825 17.1111 7.33333C17.1111 5.38841 17.8837 3.52315 19.259 2.14788C20.6343 0.772617 22.4995 0 24.4444 0V0ZM40.3333 2.44444C41.9541 2.44444 43.5085 3.08829 44.6545 4.23435C45.8006 5.3804 46.4444 6.93479 46.4444 8.55556C46.4444 10.1763 45.8006 11.7307 44.6545 12.8768C43.5085 14.0228 41.9541 14.6667 40.3333 14.6667C38.7126 14.6667 37.1582 14.0228 36.0121 12.8768C34.8661 11.7307 34.2222 10.1763 34.2222 8.55556C34.2222 6.93479 34.8661 5.3804 36.0121 4.23435C37.1582 3.08829 38.7126 2.44444 40.3333 2.44444ZM8.55556 2.44444C10.1763 2.44444 11.7307 3.08829 12.8768 4.23435C14.0228 5.3804 14.6667 6.93479 14.6667 8.55556C14.6667 10.1763 14.0228 11.7307 12.8768 12.8768C11.7307 14.0228 10.1763 14.6667 8.55556 14.6667C6.93479 14.6667 5.3804 14.0228 4.23435 12.8768C3.08829 11.7307 2.44444 10.1763 2.44444 8.55556C2.44444 6.93479 3.08829 5.3804 4.23435 4.23435C5.3804 3.08829 6.93479 2.44444 8.55556 2.44444V2.44444Z" fill="black"/>
</svg>
