<svg width="32" height="32" viewBox="0 0 32 32" fill="none" xmlns="http://www.w3.org/2000/svg">
<path opacity="0.5" d="M0 16C0 7.16344 7.16344 0 16 0V0C24.8366 0 32 7.16344 32 16V16C32 24.8366 24.8366 32 16 32V32C7.16344 32 0 24.8366 0 16V16Z" fill="#EAEAEA"/>
<path d="M11 13.7188C11 12.9367 11.6716 12.3027 12.5 12.3027H20.5C21.3284 12.3027 22 12.9367 22 13.7188C22 13.9795 21.7762 14.1908 21.5 14.1908H19.5C18.1193 14.1908 17 15.2475 17 16.551C17 17.8545 18.1193 18.9111 19.5 18.9111H21.5C21.7762 18.9111 22 19.1225 22 19.3831C22 20.1652 21.3284 20.7993 20.5 20.7993H12.5C11.6716 20.7993 11 20.1652 11 19.3831V13.7188Z" fill="black"/>
<path fill-rule="evenodd" clip-rule="evenodd" d="M19.5 15.1353H21.5C21.7762 15.1353 22 15.3466 22 15.6073V17.4954C22 17.7561 21.7762 17.9674 21.5 17.9674H19.5C18.6716 17.9674 18 17.3334 18 16.5513C18 15.7693 18.6716 15.1353 19.5 15.1353ZM19.5 17.0234C19.7761 17.0234 20 16.812 20 16.5513C20 16.2906 19.7761 16.0793 19.5 16.0793C19.2239 16.0793 19 16.2906 19 16.5513C19 16.812 19.2239 17.0234 19.5 17.0234Z" fill="black"/>
</svg>
