<svg width="40" height="33" viewBox="0 0 40 33" fill="none" xmlns="http://www.w3.org/2000/svg">
<path d="M35.8885 8.09646C35.9139 8.45177 35.9139 8.80716 35.9139 9.16248C35.9139 20 27.6652 32.4875 12.5889 32.4875C7.94419 32.4875 3.62948 31.1422 0 28.8073C0.659926 28.8834 1.29438 28.9088 1.9797 28.9088C5.81214 28.9088 9.34013 27.6144 12.1574 25.4062C8.55333 25.3301 5.533 22.9697 4.49237 19.7209C5.00003 19.797 5.50761 19.8478 6.04066 19.8478C6.77668 19.8478 7.51278 19.7462 8.19802 19.5686C4.44167 18.8071 1.62431 15.5077 1.62431 11.5229V11.4214C2.71564 12.0305 3.98479 12.4112 5.32988 12.462C3.12174 10.9898 1.67509 8.47716 1.67509 5.63449C1.67509 4.11167 2.08111 2.71572 2.79181 1.49743C6.82739 6.47207 12.8934 9.72076 19.6954 10.0762C19.5686 9.46701 19.4924 8.83255 19.4924 8.19802C19.4924 3.68018 23.1473 0 27.6904 0C30.0508 0 32.1828 0.98985 33.6803 2.58884C35.533 2.23353 37.3097 1.54821 38.8834 0.609144C38.2741 2.51275 36.9798 4.11174 35.2793 5.12691C36.9291 4.94933 38.528 4.49237 40.0001 3.85791C38.8835 5.48222 37.4875 6.92887 35.8885 8.09646V8.09646Z" fill="black"/>
</svg>
